<?xml version="1.0" encoding="UTF-8" standalone="no"?>
<svg width="200" height="100" viewBox="0 0 200 100" xmlns="http://www.w3.org/2000/svg">
  <!-- Premium Car (Luxury Sedan) -->
  <g fill="none" stroke="#333" stroke-width="2">
    <!-- Car Body -->
    <path d="M15,65 L15,75 L35,75 L35,65 L150,65 L175,35 L185,35 L185,75 L165,75 L165,65 Z" fill="#2c3e50"/>
    <!-- Windows -->
    <path d="M40,45 L55,15 L135,15 L155,45 L40,45 Z" fill="#e0e0e0"/>
    <!-- Wheels -->
    <circle cx="50" cy="75" r="16" fill="#222"/>
    <circle cx="150" cy="75" r="16" fill="#222"/>
    <circle cx="50" cy="75" r="8" fill="#666"/>
    <circle cx="150" cy="75" r="8" fill="#666"/>
    <circle cx="50" cy="75" r="3" fill="#999"/>
    <circle cx="150" cy="75" r="3" fill="#999"/>
    <!-- Lights -->
    <rect x="15" y="50" width="15" height="5" rx="2" fill="#ffcc00"/>
    <rect x="170" y="50" width="15" height="5" rx="2" fill="#ff3333"/>
    <!-- LED Daytime Running Lights -->
    <line x1="20" y1="47" x2="30" y2="47" stroke="#ffffff" stroke-width="1.5"/>
    <line x1="170" y1="47" x2="180" y2="47" stroke="#ffffff" stroke-width="1.5"/>
    <!-- Details -->
    <line x1="40" y1="45" x2="155" y2="45" stroke="#333" stroke-width="2"/>
    <line x1="55" y1="15" x2="135" y2="15" stroke="#333" stroke-width="2"/>
    <!-- Door Lines -->
    <line x1="70" y1="45" x2="70" y2="65" stroke="#333" stroke-width="1"/>
    <line x1="125" y1="45" x2="125" y2="65" stroke="#333" stroke-width="1"/>
    <!-- Door Handles -->
    <line x1="75" y1="55" x2="85" y2="55" stroke="#666" stroke-width="1.5"/>
    <line x1="130" y1="55" x2="140" y2="55" stroke="#666" stroke-width="1.5"/>
    <!-- Luxury Grille -->
    <rect x="40" y="65" width="20" height="5" fill="#888"/>
    <line x1="42" y1="65" x2="42" y2="70" stroke="#666" stroke-width="1"/>
    <line x1="45" y1="65" x2="45" y2="70" stroke="#666" stroke-width="1"/>
    <line x1="48" y1="65" x2="48" y2="70" stroke="#666" stroke-width="1"/>
    <line x1="51" y1="65" x2="51" y2="70" stroke="#666" stroke-width="1"/>
    <line x1="54" y1="65" x2="54" y2="70" stroke="#666" stroke-width="1"/>
    <line x1="57" y1="65" x2="57" y2="70" stroke="#666" stroke-width="1"/>
    <!-- Roof -->
    <line x1="60" y1="15" x2="130" y2="15" stroke="#333" stroke-width="3"/>
  </g>
</svg> 