<?xml version="1.0" encoding="UTF-8" standalone="no"?>
<svg width="200" height="100" viewBox="0 0 200 100" xmlns="http://www.w3.org/2000/svg">
  <!-- Economy Car -->
  <g fill="none" stroke="#333" stroke-width="2">
    <!-- Car Body -->
    <path d="M30,65 L30,75 L40,75 L40,65 L140,65 L160,45 L170,45 L170,75 L160,75 L160,65 Z" fill="#f5f5f5"/>
    <!-- Windows -->
    <path d="M50,45 L60,25 L120,25 L140,45 L50,45 Z" fill="#e0e0e0"/>
    <!-- Wheels -->
    <circle cx="55" cy="75" r="15" fill="#444"/>
    <circle cx="145" cy="75" r="15" fill="#444"/>
    <circle cx="55" cy="75" r="7" fill="#888"/>
    <circle cx="145" cy="75" r="7" fill="#888"/>
    <!-- Lights -->
    <rect x="30" y="50" width="10" height="5" rx="2" fill="#ffcc00"/>
    <rect x="160" y="50" width="10" height="5" rx="2" fill="#ff3333"/>
    <!-- Details -->
    <line x1="50" y1="45" x2="140" y2="45" stroke="#333" stroke-width="2"/>
    <line x1="60" y1="25" x2="120" y2="25" stroke="#333" stroke-width="2"/>
  </g>
</svg> 